<?xml version="1.0" encoding="UTF-8" standalone="no"?>
<svg
   width="999"
   height="71"
   viewBox="0 0 999 71"
   fill="none"
   version="1.1"
   id="svg2"
   sodipodi:docname="PHOTOGRAPHE EVENT.svg"
   inkscape:version="1.4 (e7c3feb100, 2024-10-09)"
   xmlns:inkscape="http://www.inkscape.org/namespaces/inkscape"
   xmlns:sodipodi="http://sodipodi.sourceforge.net/DTD/sodipodi-0.dtd"
   xmlns="http://www.w3.org/2000/svg"
   xmlns:svg="http://www.w3.org/2000/svg">
  <defs
     id="defs2" />
  <sodipodi:namedview
     id="namedview2"
     pagecolor="#ffffff"
     bordercolor="#000000"
     borderopacity="0.25"
     inkscape:showpageshadow="2"
     inkscape:pageopacity="0.0"
     inkscape:pagecheckerboard="0"
     inkscape:deskcolor="#d1d1d1"
     inkscape:zoom="1.1011011"
     inkscape:cx="499.5"
     inkscape:cy="35.419091"
     inkscape:window-width="1920"
     inkscape:window-height="975"
     inkscape:window-x="0"
     inkscape:window-y="0"
     inkscape:window-maximized="1"
     inkscape:current-layer="svg2" />
  <mask
     id="path-1-outside-1_66719_3658"
     maskUnits="userSpaceOnUse"
     x="-4"
     y="-3"
     width="1006"
     height="77"
     fill="black">
    <rect
       fill="white"
       x="-4"
       y="-3"
       width="1006"
       height="77"
       id="rect1" />
    <path
       d="M17.952 43.656L12.576 69H0L14.208 1.8H38.208C41.024 1.8 43.552 2.248 45.792 3.144C48.096 4.04 50.048 5.288 51.648 6.888C53.248 8.488 54.464 10.376 55.296 12.552C56.192 14.728 56.64 17.096 56.64 19.656C56.64 23.24 56.032 26.504 54.816 29.448C53.6 32.392 51.872 34.92 49.632 37.032C47.392 39.144 44.704 40.776 41.568 41.928C38.432 43.08 34.944 43.656 31.104 43.656H17.952ZM20.544 31.56H32.256C35.52 31.56 38.24 30.6 40.416 28.68C42.592 26.76 43.68 24.264 43.68 21.192C43.68 18.824 42.912 17.032 41.376 15.816C39.904 14.536 37.952 13.896 35.52 13.896H24.288L20.544 31.56ZM72.9893 1.8H85.6613L79.8053 29.256H99.0053L104.861 1.8H117.533L103.229 69H90.5573L96.4133 41.352H77.2133L71.3573 69H58.7812L72.9893 1.8ZM123.803 27.912C125.787 18.44 129.083 11.496 133.691 7.08C138.363 2.664 144.763 0.455996 152.891 0.455996C156.283 0.455996 159.291 0.999996 161.915 2.088C164.539 3.112 166.747 4.584 168.539 6.504C170.331 8.36 171.675 10.568 172.571 13.128C173.531 15.688 174.01 18.44 174.01 21.384C174.01 22.472 173.947 23.56 173.819 24.648C173.755 25.736 173.595 26.824 173.339 27.912L170.171 42.888C168.187 52.36 164.859 59.304 160.187 63.72C155.579 68.136 149.211 70.344 141.083 70.344C137.691 70.344 134.683 69.832 132.059 68.808C129.435 67.72 127.227 66.248 125.435 64.392C123.643 62.472 122.267 60.264 121.307 57.768C120.411 55.208 119.963 52.424 119.963 49.416C119.963 48.328 119.995 47.24 120.059 46.152C120.187 45.064 120.379 43.976 120.635 42.888L123.803 27.912ZM142.234 58.824C144.411 58.824 146.331 58.44 147.995 57.672C149.659 56.84 151.099 55.752 152.315 54.408C153.595 53.064 154.619 51.464 155.387 49.608C156.219 47.752 156.859 45.768 157.307 43.656L160.859 27.144C161.051 26.12 161.179 25.256 161.243 24.552C161.371 23.784 161.435 23.048 161.435 22.344C161.435 19.08 160.571 16.552 158.843 14.76C157.179 12.904 154.811 11.976 151.739 11.976C149.563 11.976 147.643 12.392 145.979 13.224C144.315 13.992 142.843 15.048 141.562 16.392C140.347 17.736 139.323 19.336 138.491 21.192C137.723 23.048 137.115 25.032 136.667 27.144L133.115 43.656C132.731 45.384 132.539 46.984 132.539 48.456C132.539 51.72 133.371 54.28 135.035 56.136C136.763 57.928 139.163 58.824 142.234 58.824ZM185.944 1.8H234.328V13.896H216.472L204.76 69H192.088L203.8 13.896H185.944V1.8ZM241.365 27.912C243.349 18.44 246.645 11.496 251.253 7.08C255.925 2.664 262.325 0.455996 270.453 0.455996C273.845 0.455996 276.853 0.999996 279.477 2.088C282.101 3.112 284.309 4.584 286.101 6.504C287.893 8.36 289.237 10.568 290.133 13.128C291.093 15.688 291.573 18.44 291.573 21.384C291.573 22.472 291.509 23.56 291.381 24.648C291.317 25.736 291.157 26.824 290.901 27.912L287.733 42.888C285.749 52.36 282.421 59.304 277.749 63.72C273.141 68.136 266.773 70.344 258.645 70.344C255.253 70.344 252.245 69.832 249.621 68.808C246.997 67.72 244.789 66.248 242.997 64.392C241.205 62.472 239.829 60.264 238.869 57.768C237.973 55.208 237.525 52.424 237.525 49.416C237.525 48.328 237.557 47.24 237.621 46.152C237.749 45.064 237.941 43.976 238.197 42.888L241.365 27.912ZM259.797 58.824C261.973 58.824 263.893 58.44 265.557 57.672C267.221 56.84 268.661 55.752 269.877 54.408C271.157 53.064 272.181 51.464 272.949 49.608C273.781 47.752 274.421 45.768 274.869 43.656L278.421 27.144C278.613 26.12 278.741 25.256 278.805 24.552C278.933 23.784 278.997 23.048 278.997 22.344C278.997 19.08 278.133 16.552 276.405 14.76C274.741 12.904 272.373 11.976 269.301 11.976C267.125 11.976 265.205 12.392 263.541 13.224C261.877 13.992 260.405 15.048 259.125 16.392C257.909 17.736 256.885 19.336 256.053 21.192C255.285 23.048 254.677 25.032 254.229 27.144L250.677 43.656C250.293 45.384 250.101 46.984 250.101 48.456C250.101 51.72 250.933 54.28 252.597 56.136C254.325 57.928 256.725 58.824 259.797 58.824ZM318.098 35.016H347.762V36.168L340.85 69H329.33L330.962 61.512H329.234C327.954 64.008 326.034 66.12 323.474 67.848C320.914 69.512 317.458 70.344 313.106 70.344C310.61 70.344 308.306 69.928 306.194 69.096C304.082 68.328 302.258 67.144 300.722 65.544C299.186 63.944 297.97 61.992 297.074 59.688C296.242 57.32 295.826 54.6 295.826 51.528C295.826 49.032 296.146 46.28 296.786 43.272L300.146 27.528C302.13 18.248 305.65 11.432 310.706 7.08C315.826 2.664 322.45 0.455996 330.578 0.455996C333.778 0.455996 336.626 0.967997 339.122 1.992C341.682 2.952 343.826 4.296 345.554 6.024C347.282 7.752 348.594 9.768 349.49 12.072C350.45 14.312 350.93 16.712 350.93 19.272C350.93 20.168 350.866 21.128 350.738 22.152C350.61 23.112 350.45 24.008 350.258 24.84L349.97 25.992H337.298L337.586 24.84C337.778 24.072 337.906 23.4 337.97 22.824C338.034 22.248 338.066 21.672 338.066 21.096C338.066 18.408 337.234 16.328 335.57 14.856C333.906 13.32 331.474 12.552 328.274 12.552C326.482 12.552 324.786 12.84 323.186 13.416C321.586 13.992 320.082 14.92 318.674 16.2C317.33 17.416 316.146 19.048 315.122 21.096C314.098 23.08 313.266 25.544 312.626 28.488L309.554 42.696C309.298 43.848 309.138 44.808 309.074 45.576C309.01 46.344 308.978 47.112 308.978 47.88C308.978 51.336 309.874 53.928 311.666 55.656C313.458 57.384 315.89 58.248 318.962 58.248C322.738 58.248 325.81 57.256 328.178 55.272C330.61 53.224 332.178 50.504 332.882 47.112H318.098V35.016ZM397.232 69H384.368L388.688 48.84C388.816 48.2 388.88 47.688 388.88 47.304C388.88 46.216 388.528 45.352 387.824 44.712C387.12 44.008 386.032 43.656 384.56 43.656H370.64L365.264 69H352.688L366.896 1.8H390.512C393.648 1.8 396.4 2.248 398.768 3.144C401.2 3.976 403.216 5.128 404.816 6.6C406.48 8.008 407.696 9.704 408.464 11.688C409.296 13.672 409.712 15.752 409.712 17.928C409.712 22.6 408.624 26.408 406.448 29.352C404.336 32.232 401.072 34.408 396.656 35.88V37.608C398.512 37.8 399.92 38.472 400.88 39.624C401.904 40.712 402.416 42.12 402.416 43.848C402.416 44.488 402.352 45.128 402.224 45.768L397.232 69ZM373.232 31.56H384.752C388.144 31.56 390.928 30.664 393.104 28.872C395.28 27.08 396.368 24.648 396.368 21.576C396.368 19.144 395.696 17.256 394.352 15.912C393.072 14.568 391.088 13.896 388.4 13.896H376.976L373.232 31.56ZM448.717 54.6H426.541L420.397 69H406.861L436.429 1.8H459.853L461.485 69H448.909L448.717 54.6ZM431.629 42.504H448.525L448.045 8.136H446.317L431.629 42.504ZM488.202 43.656L482.826 69H470.25L484.458 1.8H508.458C511.274 1.8 513.802 2.248 516.042 3.144C518.346 4.04 520.298 5.288 521.898 6.888C523.498 8.488 524.714 10.376 525.546 12.552C526.442 14.728 526.89 17.096 526.89 19.656C526.89 23.24 526.282 26.504 525.066 29.448C523.85 32.392 522.122 34.92 519.882 37.032C517.642 39.144 514.954 40.776 511.818 41.928C508.682 43.08 505.194 43.656 501.354 43.656H488.202ZM490.794 31.56H502.506C505.77 31.56 508.49 30.6 510.666 28.68C512.842 26.76 513.93 24.264 513.93 21.192C513.93 18.824 513.162 17.032 511.626 15.816C510.154 14.536 508.202 13.896 505.77 13.896H494.538L490.794 31.56ZM543.239 1.8H555.911L550.055 29.256H569.255L575.111 1.8H587.783L573.479 69H560.807L566.663 41.352H547.463L541.607 69H529.031L543.239 1.8ZM589.541 67.848L603.557 1.8H643.397V13.896H613.637L610.373 29.256H636.389V41.352H607.781L604.517 56.904H632.837V69H589.541V67.848ZM707.103 67.848L721.119 1.8H760.959V13.896H731.199L727.935 29.256H753.951V41.352H725.343L722.079 56.904H750.399V69H707.103V67.848ZM769.916 1.8H782.78L784.988 62.664H786.716L812.54 1.8H825.788V2.952L796.796 69H773.18L769.916 1.8ZM824.666 67.848L838.682 1.8H878.522V13.896H848.762L845.498 29.256H871.514V41.352H842.906L839.642 56.904H867.962V69H824.666V67.848ZM914.359 62.664H916.087L929.047 1.8H941.143L926.839 69H903.223L907.735 8.136H906.007L893.047 69H881.047L895.255 1.8H918.871L914.359 62.664ZM950.1 1.8H998.484V13.896H980.628L968.916 69H956.244L967.956 13.896H950.1V1.8Z"
       id="path1" />
  </mask>
  <path
     d="m 17.952,43.656 v -3 h -2.4304 l -0.5043,2.3775 z M 12.576,69 v 3 h 2.4304 l 0.5043,-2.3775 z M 0,69 -2.93511,68.3794 -3.70061,72 H 0 Z M 14.208,1.8 v -3 h -2.432 l -0.5031,2.37943 z m 31.584,1.344 -1.1142,2.78542 0.0134,0.00536 0.0135,0.00523 z m 9.504,9.408 -2.8022,1.0714 0.0137,0.0356 0.0145,0.0352 z m -5.664,24.48 2.058,2.1828 z m -8.064,4.896 1.0345,2.816 z M 20.544,31.56 17.6092,30.938 16.8415,34.56 h 3.7025 z m 19.872,-2.88 1.9849,2.2495 z m 0.96,-12.864 -1.9685,2.2638 0.0522,0.0454 0.0542,0.0429 z m -17.088,-1.92 v -3 h -2.4308 l -0.504,2.3779 z m -9.2707,29.1375 -5.376,25.344 5.8694,1.245 5.376,-25.344 z M 12.576,66 H 0 v 6 H 12.576 Z M 2.93511,69.6206 17.1431,2.42056 11.2729,1.17943 -2.93511,68.3794 Z M 14.208,4.8 h 24 v -6 h -24 z m 24,0 c 2.4972,0 4.6382,0.39678 6.4698,1.12942 L 46.9062,0.358566 C 44.2578,-0.70079 41.3428,-1.2 38.208,-1.2 Z m 6.4967,1.14001 c 1.9525,0.7593 3.5424,1.78974 4.822,3.06931 l 4.2426,-4.24264 c -1.9204,-1.92044 -4.2344,-3.386 -6.89,-4.4187 z m 4.822,3.06931 c 1.2928,1.29288 2.2812,2.82008 2.9671,4.61408 l 5.6044,-2.1428 C 57.1201,8.9226 55.6765,6.67382 53.7693,4.76668 Z m 2.9953,4.68488 c 0.7341,1.783 1.118,3.759 1.118,5.9618 h 6 c 0,-2.9172 -0.5121,-5.6772 -1.57,-8.2462 z m 1.118,5.9618 c 0,3.2401 -0.5485,6.1087 -1.5968,8.6467 l 5.5456,2.2906 C 58.9725,27.2433 59.64,23.5839 59.64,19.656 Z m -1.5968,8.6467 c -1.0596,2.5654 -2.549,4.736 -4.4692,6.5465 l 4.116,4.3656 c 2.5598,-2.4135 4.5264,-5.2989 5.8988,-8.6215 z m -4.4692,6.5465 c -1.9208,1.811 -4.2522,3.2385 -7.0404,4.2628 l 2.0689,5.632 c 3.4837,-1.2797 6.5283,-3.1162 9.0875,-5.5292 z m -7.0404,4.2628 c -2.7592,1.0136 -5.8906,1.544 -9.4296,1.544 v 6 c 4.141,0 7.9856,-0.6216 11.4985,-1.912 z M 31.104,40.656 H 17.952 v 6 H 31.104 Z M 20.544,34.56 h 11.712 v -6 H 20.544 Z m 11.712,0 c 3.8973,0 7.3517,-1.1659 10.1449,-3.6305 l -3.9698,-4.499 C 36.8723,27.8059 34.8867,28.56 32.256,28.56 Z M 42.4009,30.9295 C 45.264,28.4033 46.68,25.0676 46.68,21.192 h -6 c 0,2.2684 -0.7599,3.9247 -2.2489,5.2385 z M 46.68,21.192 c 0,-3.0722 -1.0355,-5.8231 -3.4419,-7.7281 l -3.7242,4.7042 c 0.6656,0.527 1.1661,1.3601 1.1661,3.0239 z M 43.3445,13.5522 C 41.2016,11.6888 38.4906,10.896 35.52,10.896 v 6 c 1.8934,0 3.0864,0.4872 3.8875,1.1838 z M 35.52,10.896 H 24.288 v 6 H 35.52 Z m -14.1668,2.3779 -3.744,17.6641 5.8696,1.244 3.744,-17.6639 z M 72.9893,1.8 v -3 h -2.4321 l -0.5031,2.37943 z m 12.6719,0 2.9341,0.62578 L 89.3686,-1.2 h -3.7074 z m -5.8559,27.456 -2.9341,-0.6258 -0.7733,3.6258 h 3.7074 z m 19.1999,0 v 3 h 2.4278 l 0.506,-2.3742 z M 104.861,1.8 v -3 h -2.427 l -0.507,2.37421 z m 12.672,0 2.935,0.62458 0.771,-3.62458 h -3.706 z M 103.229,69 v 3 h 2.429 l 0.506,-2.3754 z M 90.5573,69 87.6224,68.3784 86.8553,72 h 3.702 z m 5.856,-27.648 2.9348,0.6216 0.7669,-3.6216 h -3.7017 z m -19.2001,0 v -3 h -2.4311 l -0.5037,2.3784 z M 71.3573,69 v 3 h 2.4311 l 0.5037,-2.3784 z M 58.7812,69 55.8461,68.3794 55.0806,72 h 3.7006 z M 72.9893,4.8 h 12.6719 v -6 H 72.9893 Z m 9.7379,-3.62579 -5.856,27.45599 5.8681,1.2516 5.856,-27.45602 z M 79.8053,32.256 h 19.1999 v -6 H 79.8053 Z M 101.939,29.8818 107.795,2.42578 101.927,1.17421 96.0712,28.6302 Z M 104.861,4.8 h 12.672 v -6 h -12.672 z m 9.738,-3.62458 -14.304,67.19998 5.869,1.2492 14.304,-67.20002 z M 103.229,66 H 90.5573 v 6 h 12.6717 z m -9.7369,3.6216 5.856,-27.648 -5.8697,-1.2432 -5.856,27.648 z M 96.4133,38.352 H 77.2132 v 6 h 19.2001 z m -22.1349,2.3784 -5.856,27.648 5.8697,1.2432 5.856,-27.648 z M 71.3573,66 H 58.7812 v 6 H 71.3573 Z M 61.7164,69.6206 75.9244,2.42056 70.0541,1.17943 55.8461,68.3794 Z m 62.0856,-41.7086 2.936,0.6209 0.001,-0.0059 z m 9.889,-20.83201 -2.061,-2.18021 -0.008,0.0071 -0.007,0.00715 z m 28.224,-4.99199 -1.15,2.77122 0.03,0.01206 0.029,0.01145 z m 6.623,4.416 -2.193,2.04695 0.018,0.01857 0.017,0.01826 z m 4.032,6.624 -2.831,0.991 0.011,0.0313 0.012,0.0311 z m 1.248,11.52 -2.979,-0.3505 -0.01,0.0869 -0.005,0.0874 z m -0.479,3.264 -2.921,-0.6871 -0.008,0.033 -0.007,0.0332 z m -3.168,14.976 -2.936,-0.6209 -0.001,0.0059 z m -9.984,20.832 -2.061,-2.1802 -0.008,0.0071 -0.007,0.0071 z m -28.128,5.088 -1.15,2.7712 0.03,0.0121 0.029,0.0114 z m -6.624,-4.416 -2.194,2.047 0.018,0.0185 0.017,0.0183 z m -4.128,-6.624 -2.832,0.991 0.015,0.0432 0.016,0.0427 z m -1.248,-11.616 -2.98,-0.3505 -0.01,0.0869 -0.005,0.0874 z m 0.575,-3.264 2.921,0.6871 0.008,-0.033 0.007,-0.0332 z m 27.361,14.784 1.257,2.7239 0.042,-0.0197 0.042,-0.0209 z m 4.319,-3.264 -2.172,-2.069 -0.026,0.0278 -0.026,0.0285 z m 3.073,-4.8 -2.738,-1.2272 -0.018,0.0398 -0.017,0.0403 z m 1.92,-5.952 -2.933,-0.6309 -0.002,0.0084 z m 3.552,-16.512 2.932,0.6309 0.009,-0.0389 0.007,-0.0391 z m 0.384,-2.592 -2.96,-0.4932 -0.018,0.1103 -0.01,0.1113 z m -2.401,-9.792 -2.233,2.0026 0.036,0.0406 0.038,0.0392 z m -12.863,-1.536 1.257,2.7239 0.042,-0.0197 0.042,-0.0209 z m -4.417,3.168 -2.172,-2.069 -0.026,0.0278 -0.026,0.0285 z m -3.072,4.8 -2.737,-1.2272 -0.018,0.0398 -0.017,0.0403 z m -1.823,5.952 2.932,0.6309 0.002,-0.0084 z m -3.552,16.512 2.928,0.6508 0.002,-0.0099 0.002,-0.01 z m 1.92,12.48 -2.234,2.0026 0.036,0.0406 0.038,0.0392 z m -8.296,-27.609 c 1.92,-9.1664 5.028,-15.4482 9.027,-19.28104 L 131.615,4.91403 C 126.398,9.91322 122.914,17.5194 120.866,27.297 Z m 9.012,-19.26679 c 3.979,-3.76037 9.567,-5.80422 17.14,-5.80422 v -6 c -8.684,0 -15.896,2.372162 -21.261,7.44379 z m 17.14,-5.80422 c 3.072,0 5.678,0.49256 7.874,1.40323 l 2.299,-5.542448 C 160.012,-1.94856 156.602,-2.54401 152.891,-2.54401 Z m 7.933,1.42674 c 2.236,0.87261 4.058,2.10043 5.521,3.66822 l 4.387,-4.09391 c -2.121,-2.27221 -4.715,-3.988385 -7.727,-5.163778 z m 5.556,3.70505 c 1.476,1.52872 2.598,3.35842 3.359,5.53122 l 5.663,-1.9821 c -1.031,-2.94708 -2.597,-5.53336 -4.705,-7.71668 z m 3.382,5.59362 c 0.824,2.1981 1.248,4.5906 1.248,7.2026 h 6 c 0,-3.276 -0.535,-6.3875 -1.631,-9.3094 z m 1.248,7.2026 c 0,0.97 -0.057,1.941 -0.171,2.9135 l 5.959,0.701 c 0.142,-1.2035 0.212,-2.4086 0.212,-3.6145 z m -0.186,3.0878 c -0.054,0.9116 -0.188,1.8287 -0.406,2.7531 l 5.841,1.3742 c 0.294,-1.2516 0.48,-2.5105 0.554,-3.7749 z m -0.421,2.8193 -3.168,14.976 5.871,1.2418 3.168,-14.976 z m -3.169,14.9819 c -1.918,9.1579 -5.054,15.4343 -9.108,19.2668 l 4.121,4.3604 c 5.29,-4.9995 8.81,-12.6111 10.86,-22.3972 z m -9.123,19.281 c -3.908,3.7455 -9.453,5.79 -17.028,5.79 v 6 c 8.68,0 15.871,-2.3715 21.179,-7.458 z m -17.028,5.79 c -3.094,0 -5.721,-0.467 -7.934,-1.3307 l -2.181,5.5894 c 3.035,1.1843 6.424,1.7413 10.115,1.7413 z m -7.875,-1.3072 c -2.283,-0.9465 -4.137,-2.1972 -5.615,-3.7286 l -4.317,4.1676 c 2.106,2.1806 4.668,3.8739 7.633,5.1034 z m -5.58,-3.6918 c -1.525,-1.6333 -2.697,-3.5105 -3.521,-5.6539 l -5.601,2.1538 c 1.096,2.8486 2.676,5.3874 4.735,7.5941 z m -3.49,-5.5681 c -0.773,-2.2086 -1.175,-4.6538 -1.175,-7.3609 h -6 c 0,3.3089 0.493,6.4317 1.512,9.343 z m -1.175,-7.3609 c 0,-1.0291 0.03,-2.0584 0.09,-3.0878 l -5.989,-0.3524 c -0.068,1.1466 -0.101,2.2933 -0.101,3.4402 z m 0.075,-2.9135 c 0.114,-0.9725 0.286,-1.9481 0.517,-2.9274 l -5.841,-1.3742 c -0.281,1.1967 -0.493,2.3971 -0.635,3.6006 z m 0.532,-2.9936 3.168,-14.976 -5.871,-1.2418 -3.168,14.976 z m 18.664,18.3151 c 2.53,0 4.893,-0.4473 7.018,-1.4281 l -2.515,-5.4478 c -1.203,0.5552 -2.68,0.8759 -4.503,0.8759 z m 7.102,-1.4687 c 1.989,-0.9942 3.73,-2.3068 5.203,-3.9346 l -4.449,-4.0254 c -0.959,1.0602 -2.098,1.9236 -3.437,2.5934 z m 5.151,-3.8783 c 1.555,-1.633 2.774,-3.5525 3.672,-5.7219 l -5.545,-2.2942 c -0.638,1.5426 -1.467,2.8231 -2.472,3.8781 z m 3.637,-5.6418 c 0.924,-2.0615 1.628,-4.2494 2.117,-6.5567 l -5.869,-1.245 c -0.407,1.9167 -0.983,3.6968 -1.723,5.3473 z m 2.115,-6.5483 3.552,-16.512 -5.865,-1.2618 -3.552,16.512 z m 3.568,-16.59 c 0.202,-1.078 0.348,-2.0423 0.423,-2.8733 l -5.975,-0.5432 c -0.053,0.577 -0.163,1.3407 -0.345,2.3107 z m 0.395,-2.6517 c 0.152,-0.9141 0.233,-1.8157 0.233,-2.7012 h -6 c 0,0.5225 -0.048,1.0929 -0.152,1.7148 z m 0.233,-2.7012 c 0,-3.791 -1.014,-7.1581 -3.433,-9.6664 l -4.319,4.1648 c 1.037,1.0757 1.752,2.7646 1.752,5.5016 z m -3.359,-9.5866 C 158.714,10.1231 155.449,8.976 151.738,8.976 v 6 c 2.434,0 3.905,0.7089 4.871,1.7866 z M 151.738,8.976 c -2.562,0 -4.955,0.49184 -7.101,1.5647 l 2.683,5.3666 c 1.182,-0.5911 2.629,-0.9313 4.418,-0.9313 z m -7.017,1.5241 c -2.012,0.9287 -3.793,2.2084 -5.331,3.8229 l 4.345,4.138 c 1.022,-1.0735 2.185,-1.9058 3.501,-2.5131 z m -5.383,3.8792 c -1.451,1.6039 -2.64,3.4771 -3.585,5.5855 l 5.475,2.4544 c 0.719,-1.6036 1.578,-2.9304 2.559,-4.0145 z m -3.62,5.6656 c -0.843,2.0376 -1.503,4.1984 -1.986,6.4766 l 5.869,1.245 c 0.413,-1.9458 0.969,-3.753 1.662,-5.4274 z m -1.984,6.4682 -3.552,16.512 5.865,1.2618 3.552,-16.512 z m -3.548,16.4921 c -0.422,1.9002 -0.648,3.7212 -0.648,5.4508 h 6 c 0,-1.2144 0.159,-2.5934 0.505,-4.1492 z m -0.648,5.4508 c 0,3.7692 0.969,7.1239 3.263,9.6826 l 4.467,-4.0052 c -1.034,-1.1534 -1.73,-2.9186 -1.73,-5.6774 z m 3.337,9.7624 c 2.421,2.5102 5.676,3.6056 9.359,3.6056 v -6 c -2.46,0 -4.005,-0.6966 -5.04,-1.7704 z M 185.944,1.8 v -3 h -3 v 3 z m 48.384,0 h 3 v -3 h -3 z m 0,12.096 v 3 h 3 v -3 z m -17.856,0 v -3 h -2.43 l -0.505,2.3763 z M 204.76,69 v 3 h 2.429 l 0.505,-2.3763 z m -12.672,0 -2.935,-0.6237 -0.77,3.6237 h 3.705 z m 11.712,-55.104 2.934,0.6237 0.77,-3.6237 H 203.8 Z m -17.856,0 h -3 v 3 h 3 z m 0,-9.096 h 48.384 v -6 h -48.384 z m 45.384,-3 v 12.096 h 6 V 1.8 Z m 3,9.096 h -17.856 v 6 h 17.856 z m -20.791,2.3763 -11.712,55.104 5.869,1.2474 11.712,-55.104 z M 204.76,66 h -12.672 v 6 h 12.672 z m -9.738,3.6237 11.712,-55.104 -5.869,-1.2474 -11.712,55.104 z M 203.8,10.896 h -17.856 v 6 H 203.8 Z m -14.856,3 V 1.8 h -6 v 12.096 z m 52.421,14.016 2.935,0.6209 10e-4,-0.0059 z m 9.888,-20.83201 -2.061,-2.18021 -0.007,0.0071 -0.008,0.00715 z m 28.224,-4.99199 -1.149,2.77122 0.029,0.01206 0.029,0.01145 z m 6.624,4.416 -2.193,2.04695 0.017,0.01857 0.018,0.01826 z m 4.032,6.624 -2.832,0.991 0.011,0.0313 0.012,0.0311 z m 1.248,11.52 -2.979,-0.3505 -0.011,0.0869 -0.005,0.0874 z m -0.48,3.264 -2.92,-0.6871 -0.008,0.033 -0.007,0.0332 z m -3.168,14.976 -2.935,-0.6209 -10e-4,0.0059 z m -9.984,20.832 -2.061,-2.1802 -0.007,0.0071 -0.008,0.0071 z m -28.128,5.088 -1.149,2.7712 0.029,0.0121 0.029,0.0114 z m -6.624,-4.416 -2.193,2.047 0.017,0.0185 0.018,0.0183 z m -4.128,-6.624 -2.832,0.991 0.016,0.0432 0.016,0.0427 z m -1.248,-11.616 -2.979,-0.3505 -0.011,0.0869 -0.005,0.0874 z m 0.576,-3.264 2.92,0.6871 0.008,-0.033 0.007,-0.0332 z m 27.36,14.784 1.257,2.7239 0.043,-0.0197 0.042,-0.0209 z m 4.32,-3.264 -2.172,-2.069 -0.027,0.0278 -0.026,0.0285 z m 3.072,-4.8 -2.738,-1.2272 -0.017,0.0398 -0.017,0.0403 z m 1.92,-5.952 -2.933,-0.6309 -0.002,0.0084 z m 3.552,-16.512 2.933,0.6309 0.008,-0.0389 0.008,-0.0391 z m 0.384,-2.592 -2.959,-0.4932 -0.019,0.1103 -0.01,0.1113 z m -2.4,-9.792 -2.234,2.0026 0.037,0.0406 0.037,0.0392 z m -12.864,-1.536 1.257,2.7239 0.043,-0.0197 0.042,-0.0209 z m -4.416,3.168 -2.172,-2.069 -0.027,0.0278 -0.026,0.0285 z m -3.072,4.8 -2.738,-1.2272 -0.017,0.0398 -0.017,0.0403 z m -1.824,5.952 2.933,0.6309 0.002,-0.0084 z m -3.552,16.512 2.929,0.6508 0.002,-0.0099 0.002,-0.01 z m 1.92,12.48 -2.234,2.0026 0.037,0.0406 0.037,0.0392 z m -8.296,-27.609 c 1.92,-9.1664 5.028,-15.4482 9.028,-19.28104 l -4.152,-4.33193 c -5.216,4.99919 -8.7,12.60537 -10.748,22.38297 z m 9.013,-19.26679 c 3.978,-3.76037 9.566,-5.80422 17.139,-5.80422 v -6 c -8.683,0 -15.895,2.372162 -21.261,7.44379 z m 17.139,-5.80422 c 3.073,0 5.679,0.49256 7.875,1.40323 l 2.298,-5.542448 C 277.574,-1.94856 274.164,-2.54401 270.453,-2.54401 Z m 7.933,1.42674 c 2.236,0.87261 4.059,2.10043 5.522,3.66822 l 4.386,-4.09391 c -2.121,-2.27221 -4.714,-3.988385 -7.726,-5.163778 z m 5.557,3.70505 c 1.476,1.52872 2.598,3.35842 3.358,5.53122 l 5.664,-1.9821 c -1.032,-2.94708 -2.598,-5.53336 -4.706,-7.71668 z m 3.381,5.59362 c 0.824,2.1981 1.249,4.5906 1.249,7.2026 h 6 c 0,-3.276 -0.535,-6.3875 -1.631,-9.3094 z m 1.249,7.2026 c 0,0.97 -0.057,1.941 -0.171,2.9135 l 5.958,0.701 c 0.142,-1.2035 0.213,-2.4086 0.213,-3.6145 z m -0.187,3.0878 c -0.053,0.9116 -0.188,1.8287 -0.405,2.7531 l 5.84,1.3742 c 0.295,-1.2516 0.48,-2.5105 0.555,-3.7749 z m -0.42,2.8193 -3.168,14.976 5.87,1.2418 3.168,-14.976 z m -3.169,14.9819 c -1.918,9.1579 -5.054,15.4343 -9.109,19.2668 l 4.122,4.3604 c 5.289,-4.9995 8.81,-12.6111 10.859,-22.3972 z m -9.124,19.281 c -3.908,3.7455 -9.453,5.79 -17.028,5.79 v 6 c 8.681,0 15.872,-2.3715 21.18,-7.458 z m -17.028,5.79 c -3.093,0 -5.72,-0.467 -7.933,-1.3307 l -2.182,5.5894 c 3.035,1.1843 6.424,1.7413 10.115,1.7413 z m -7.875,-1.3072 c -2.283,-0.9465 -4.136,-2.1972 -5.615,-3.7286 l -4.316,4.1676 c 2.105,2.1806 4.668,3.8739 7.633,5.1034 z m -5.58,-3.6918 c -1.524,-1.6333 -2.697,-3.5105 -3.521,-5.6539 l -5.6,2.1538 c 1.096,2.8486 2.675,5.3874 4.735,7.5941 z m -3.489,-5.5681 c -0.773,-2.2086 -1.176,-4.6538 -1.176,-7.3609 h -6 c 0,3.3089 0.493,6.4317 1.512,9.343 z m -1.176,-7.3609 c 0,-1.0291 0.03,-2.0584 0.091,-3.0878 l -5.99,-0.3524 c -0.067,1.1466 -0.101,2.2933 -0.101,3.4402 z m 0.075,-2.9135 c 0.115,-0.9725 0.287,-1.9481 0.517,-2.9274 l -5.84,-1.3742 c -0.282,1.1967 -0.494,2.3971 -0.635,3.6006 z m 0.532,-2.9936 3.168,-14.976 -5.87,-1.2418 -3.168,14.976 z m 18.665,18.3151 c 2.53,0 4.892,-0.4473 7.017,-1.4281 L 264.3,54.9481 c -1.203,0.5552 -2.681,0.8759 -4.503,0.8759 z m 7.102,-1.4687 c 1.988,-0.9942 3.73,-2.3068 5.203,-3.9346 l -4.45,-4.0254 c -0.959,1.0602 -2.097,1.9236 -3.437,2.5934 z m 5.15,-3.8783 c 1.556,-1.633 2.774,-3.5525 3.672,-5.7219 l -5.544,-2.2942 c -0.638,1.5426 -1.468,2.8231 -2.472,3.8781 z m 3.638,-5.6418 c 0.924,-2.0615 1.627,-4.2494 2.117,-6.5567 l -5.87,-1.245 c -0.406,1.9167 -0.983,3.6968 -1.723,5.3473 z m 2.115,-6.5483 3.552,-16.512 -5.866,-1.2618 -3.552,16.512 z m 3.568,-16.59 c 0.202,-1.078 0.347,-2.0423 0.423,-2.8733 l -5.976,-0.5432 c -0.052,0.577 -0.163,1.3407 -0.345,2.3107 z m 0.394,-2.6517 c 0.153,-0.9141 0.233,-1.8157 0.233,-2.7012 h -6 c 0,0.5225 -0.048,1.0929 -0.151,1.7148 z m 0.233,-2.7012 c 0,-3.791 -1.014,-7.1581 -3.432,-9.6664 l -4.32,4.1648 c 1.038,1.0757 1.752,2.7646 1.752,5.5016 z m -3.358,-9.5866 C 276.277,10.1231 273.011,8.976 269.301,8.976 v 6 c 2.434,0 3.904,0.7089 4.87,1.7866 z M 269.301,8.976 c -2.563,0 -4.956,0.49184 -7.102,1.5647 l 2.684,5.3666 c 1.182,-0.5911 2.629,-0.9313 4.418,-0.9313 z m -7.017,1.5241 c -2.012,0.9287 -3.794,2.2084 -5.331,3.8229 l 4.344,4.138 c 1.023,-1.0735 2.185,-1.9058 3.501,-2.5131 z m -5.384,3.8792 c -1.451,1.6039 -2.639,3.4771 -3.585,5.5855 l 5.476,2.4544 c 0.718,-1.6036 1.578,-2.9304 2.559,-4.0145 z m -3.619,5.6656 c -0.843,2.0376 -1.503,4.1984 -1.987,6.4766 l 5.87,1.245 c 0.412,-1.9458 0.968,-3.753 1.661,-5.4274 z m -1.985,6.4682 -3.552,16.512 5.866,1.2618 3.552,-16.512 z m -3.548,16.4921 c -0.422,1.9002 -0.647,3.7212 -0.647,5.4508 h 6 c 0,-1.2144 0.159,-2.5934 0.505,-4.1492 z m -0.647,5.4508 c 0,3.7692 0.968,7.1239 3.262,9.6826 l 4.468,-4.0052 c -1.034,-1.1534 -1.73,-2.9186 -1.73,-5.6774 z m 3.336,9.7624 c 2.421,2.5102 5.677,3.6056 9.36,3.6056 v -6 c -2.461,0 -4.005,-0.6966 -5.04,-1.7704 z M 318.098,35.016 v -3 h -3 v 3 z m 29.664,0 h 3 v -3 h -3 z m 0,1.152 2.936,0.618 0.064,-0.3056 V 36.168 Z M 340.85,69 v 3 h 2.434 l 0.502,-2.382 z M 329.33,69 326.399,68.3612 325.606,72 h 3.724 z m 1.632,-7.488 2.931,0.6388 0.794,-3.6388 h -3.725 z m -1.728,0 v -3 h -1.833 l -0.836,1.6311 z m -5.76,6.336 1.635,2.5153 0.022,-0.0142 0.022,-0.0146 z m -17.28,1.248 1.1,-2.7912 -0.037,-0.0146 -0.038,-0.0136 z m -5.472,-3.552 -2.164,2.0776 z m -3.648,-5.856 -2.83,0.9945 0.016,0.0467 0.018,0.0461 z m -0.288,-16.416 -2.934,-0.6261 v 0.0018 z m 3.36,-15.744 -2.933,-0.6272 -0.001,0.0011 z m 10.56,-20.44801 1.957,2.27371 0.003,-0.00196 z m 28.416,-5.08799 -1.138,2.77551 0.042,0.01739 0.043,0.01609 z m 6.432,4.032 2.122,-2.12132 z m 3.936,6.048 -2.796,1.0873 0.019,0.0476 0.02,0.0468 z m 1.248,10.08 2.974,0.3965 0.002,-0.0122 10e-4,-0.0122 z m -0.48,2.688 2.911,0.7276 0.006,-0.0265 0.006,-0.0265 z m -0.288,1.152 v 3 h 2.343 l 0.568,-2.2724 z m -12.672,0 -2.91,-0.7276 -0.932,3.7276 h 3.842 z m 0.288,-1.152 -2.91,-0.7276 v 0 z m 0.384,-2.016 -2.981,-0.3313 z m -2.4,-7.968 -2.035,2.2044 0.024,0.0215 0.024,0.0211 z m -12.384,-1.44 -1.016,-2.8227 v 0 z m -4.512,2.784 2.013,2.2246 0.005,-0.0048 z m -3.552,4.896 2.666,1.3759 0.009,-0.0171 0.009,-0.0172 z m -2.496,7.392 -2.931,-0.6373 -10e-4,0.0033 z m -3.072,14.208 2.929,0.6508 0.002,-0.0084 10e-4,-0.0084 z m -0.48,2.88 -2.989,-0.2491 z m 2.592,10.08 2.083,-2.1595 z m 16.512,-0.384 1.927,2.2996 0.006,-0.0049 z m 4.704,-8.16 2.938,0.6096 0.749,-3.6096 h -3.687 z m -14.784,0 h -3 v 3 h 3 z m 0,-9.096 h 29.664 v -6 h -29.664 z m 26.664,-3 v 1.152 h 6 v -1.152 z m 0.065,0.534 -6.912,32.832 5.871,1.236 6.912,-32.832 z M 340.85,66 h -11.52 v 6 h 11.52 z m -8.589,3.6388 1.632,-7.488 -5.862,-1.2776 -1.632,7.488 z M 330.962,58.512 h -1.728 v 6 h 1.728 z m -4.397,1.6311 c -1.027,2.0015 -2.585,3.7441 -4.769,5.2184 l 3.357,4.973 c 2.936,-1.9817 5.217,-4.4631 6.751,-7.4535 z m -4.726,5.1896 c -1.907,1.24 -4.726,2.0113 -8.733,2.0113 v 6 c 4.697,0 8.791,-0.8927 12.003,-2.9807 z m -8.733,2.0113 c -2.157,0 -4.084,-0.3583 -5.812,-1.0392 l -2.199,5.5824 c 2.495,0.9831 5.176,1.4568 8.011,1.4568 z m -5.887,-1.0674 c -1.686,-0.6133 -3.119,-1.5458 -4.333,-2.8102 l -4.328,4.1552 c 1.858,1.9357 4.074,3.3711 6.611,4.2938 z m -4.333,-2.8102 c -1.232,-1.2838 -2.247,-2.888 -3.016,-4.8657 l -5.592,2.1746 c 1.023,2.6303 2.441,4.9301 4.28,6.8463 z m -2.981,-4.7729 c -0.698,-1.986 -1.079,-4.359 -1.079,-7.1655 h -6 c 0,3.3375 0.452,6.4045 1.418,9.1545 z m -1.079,-7.1655 c 0,-2.2445 0.289,-4.7836 0.895,-7.6317 l -5.869,-1.2486 c -0.674,3.1679 -1.026,6.1328 -1.026,8.8803 z m 0.894,-7.6299 3.36,-15.744 -5.868,-1.2522 -3.36,15.744 z m 3.36,-15.7429 c 1.903,-8.9022 5.195,-15.0243 9.583,-18.8015 L 308.749,4.80629 C 303.025,9.73308 299.277,17.243 297.213,26.9008 Z m 9.586,-18.80346 c 4.47,-3.85553 10.351,-5.89575 17.912,-5.89575 v -6 c -8.695,0 -16.061,2.375789 -21.831,7.35226 z m 17.912,-5.89575 c 2.881,0 5.332,0.46061 7.406,1.31152 l 2.277,-5.551018 c -2.918,-1.197102 -6.164,-1.760502 -9.683,-1.760502 z m 7.491,1.345 c 2.207,0.82757 3.973,1.95331 5.364,3.34433 l 4.243,-4.24264 c -2.065,-2.06498 -4.587,-3.627244 -7.5,-4.71967 z m 5.364,3.34433 c 1.43,1.43035 2.514,3.09308 3.261,5.01398 l 5.592,-2.1747 c -1.045,-2.68702 -2.585,-5.05627 -4.61,-7.08192 z m 3.3,5.10838 c 0.792,1.8479 1.197,3.8437 1.197,6.0183 h 6 c 0,-2.9454 -0.554,-5.7496 -1.682,-8.3818 z m 1.197,6.0183 c 0,0.7546 -0.054,1.5892 -0.169,2.5079 l 5.954,0.7442 c 0.141,-1.1294 0.215,-2.2147 0.215,-3.2521 z m -0.165,2.4835 c -0.118,0.8787 -0.262,1.681 -0.43,2.4099 l 5.846,1.3492 c 0.216,-0.9351 0.392,-1.9248 0.531,-2.9661 z m -0.417,2.3569 -0.288,1.152 5.821,1.4552 0.288,-1.152 z m 2.622,-1.1204 h -12.672 v 6 h 12.672 z m -9.761,3.7276 0.288,-1.152 -5.821,-1.4552 -0.288,1.152 z m 0.288,-1.152 c 0.213,-0.8548 0.372,-1.6645 0.455,-2.4123 l -5.963,-0.6626 c -0.045,0.4042 -0.143,0.9385 -0.313,1.6197 z m 0.455,-2.4123 c 0.076,-0.6853 0.114,-1.3719 0.114,-2.0593 h -6 c 0,0.4646 -0.026,0.93 -0.077,1.3967 z m 0.114,-2.0593 c 0,-3.3509 -1.067,-6.3272 -3.508,-8.487 l -3.975,4.494 c 0.886,0.7842 1.483,1.9679 1.483,3.993 z m -3.461,-8.4444 C 335.194,10.4261 331.917,9.552 328.274,9.552 v 6 c 2.757,0 4.344,0.6619 5.261,1.5084 z M 328.274,9.552 c -2.119,0 -4.161,0.34179 -6.104,1.0413 l 2.032,5.6454 c 1.257,-0.4525 2.608,-0.6867 4.072,-0.6867 z m -6.104,1.0413 c -2.012,0.7243 -3.849,1.8736 -5.514,3.3869 l 4.036,4.4396 c 1.152,-1.0467 2.322,-1.7534 3.51,-2.1811 z m -5.509,3.3821 c -1.682,1.5223 -3.073,3.4818 -4.222,5.779 l 5.367,2.6832 c 0.899,-1.7988 1.876,-3.1033 2.881,-4.013 z m -4.205,5.7447 c -1.178,2.2826 -2.084,5.0129 -2.761,8.1306 l 5.863,1.2746 c 0.602,-2.7703 1.36,-4.968 2.23,-6.6534 z m -2.762,8.1339 -3.072,14.208 5.864,1.268 3.073,-14.208 z m -3.068,14.1912 c -0.272,1.2228 -0.462,2.3276 -0.541,3.2817 l 5.979,0.4982 c 0.048,-0.5819 0.179,-1.3971 0.419,-2.4783 z m -0.541,3.2817 c -0.071,0.8505 -0.107,1.7017 -0.107,2.5531 h 6 c 0,-0.6846 0.029,-1.3694 0.086,-2.0549 z m -0.107,2.5531 c 0,3.9467 1.029,7.4511 3.606,9.9355 l 4.165,-4.319 c -1.008,-0.9716 -1.771,-2.6512 -1.771,-5.6165 z m 3.606,9.9355 c 2.475,2.3871 5.721,3.4325 9.378,3.4325 v -6 c -2.487,0 -4.105,-0.6826 -5.213,-1.7515 z m 9.378,3.4325 c 4.318,0 8.122,-1.1456 11.143,-3.6764 l -3.853,-4.5992 c -1.716,1.4372 -4.056,2.2756 -7.29,2.2756 z m 11.149,-3.6813 c 2.993,-2.5207 4.881,-5.8574 5.709,-9.8451 l -5.875,-1.2193 c -0.581,2.7964 -1.829,4.8997 -3.699,6.475 z m 2.771,-13.4547 h -14.784 v 6 h 14.784 z m -11.784,3 V 35.016 h -6 V 47.112 Z M 397.232,69 v 3 h 2.423 l 0.51,-2.3698 z M 384.367,69 381.434,68.3714 380.657,72 h 3.71 z m 4.321,-20.16 2.933,0.6286 0.004,-0.0201 0.004,-0.0202 z m -0.864,-4.128 -2.122,2.1213 0.051,0.0505 0.052,0.048 z m -17.185,-1.056 v -3 h -2.43 l -0.504,2.3775 z M 365.263,69 v 3 h 2.431 l 0.504,-2.3775 z M 352.688,69 349.752,68.3794 348.987,72 h 3.701 z M 366.896,1.8 v -3 h -2.433 l -0.503,2.37943 z m 31.872,1.344 -1.062,2.80586 0.045,0.01704 0.045,0.01559 z m 6.047,3.456 -2.031,2.20779 0.046,0.04215 0.048,0.04021 z m 3.649,5.088 -2.798,1.083 0.015,0.0388 0.016,0.0384 z m -2.016,17.664 -2.413,-1.7832 -0.007,0.0091 z m -9.792,6.528 -0.949,-2.846 -2.051,0.6837 V 35.88 Z m 0,1.728 h -3 v 2.7057 l 2.691,0.2784 z m 4.224,2.016 -2.305,1.9206 0.058,0.0695 0.062,0.066 z m 1.344,6.144 2.933,0.6302 0.004,-0.0209 0.004,-0.021 z m -28.992,-14.208 -2.935,-0.622 -0.768,3.622 h 3.703 z m 19.872,-2.688 1.907,2.3158 z m 1.248,-12.96 -2.173,2.069 0.025,0.0265 0.026,0.0258 z m -17.377,-2.016 v -3 h -2.43 l -0.504,2.3779 z M 397.232,66 h -12.865 v 6 h 12.865 z m -9.931,3.6286 4.32,-20.16 -5.867,-1.2572 -4.32,20.16 z m 4.328,-20.2003 c 0.144,-0.7195 0.25,-1.453 0.25,-2.1243 h -6 c 0,0.0967 -0.021,0.3872 -0.133,0.9477 z m 0.25,-2.1243 c 0,-1.7994 -0.615,-3.519 -2.037,-4.8118 l -4.037,4.4396 c 0.019,0.0166 0.025,0.0253 0.025,0.0261 0.001,6e-4 0.003,0.0036 0.007,0.014 0.008,0.018 0.042,0.1126 0.042,0.3321 z m -1.934,-4.7133 c -1.487,-1.4872 -3.496,-1.9347 -5.385,-1.9347 v 6 c 1.054,0 1.221,0.2565 1.142,0.1773 z M 384.56,40.656 h -13.921 v 6 h 13.921 z m -16.855,2.3775 -5.376,25.344 5.869,1.245 5.376,-25.344 z M 365.263,66 h -12.575 v 6 h 12.575 z m -9.64,3.6206 L 369.831,2.42056 363.96,1.17943 349.752,68.3794 Z M 366.896,4.8 h 23.616 v -6 h -23.616 z m 23.616,0 c 2.856,0 5.235,0.40877 7.194,1.14986 l 2.123,-5.611725 C 397.052,-0.712776 393.927,-1.2 390.512,-1.2 Z m 7.284,1.18249 c 2.11,0.72165 3.745,1.68122 4.988,2.8253 L 406.847,4.3922 C 404.89,2.59229 402.493,1.24786 399.739,0.305504 Z m 5.082,2.90766 c 1.29,1.09217 2.206,2.37665 2.788,3.88085 l 5.595,-2.166 c -0.954,-2.4638 -2.47,-4.57132 -4.508,-6.29516 z m 2.819,3.95805 c 0.676,1.6123 1.015,3.2975 1.015,5.0798 h 6 c 0,-2.5697 -0.494,-5.0445 -1.482,-7.4002 z m 1.015,5.0798 c 0,4.2085 -0.977,7.3401 -2.677,9.6408 l 4.825,3.5664 c 2.652,-3.5873 3.852,-8.0717 3.852,-13.2072 z m -2.684,9.6499 c -1.647,2.2466 -4.317,4.1212 -8.321,5.4561 l 1.897,5.692 c 4.828,-1.6091 8.686,-4.0865 11.263,-7.5999 z M 393.656,35.88 v 1.728 h 6 V 35.88 Z m 2.691,4.7121 c 1.278,0.1322 1.885,0.5406 2.228,0.9525 l 4.609,-3.8412 c -1.577,-1.8921 -3.786,-2.8277 -6.22,-3.0795 z m 2.348,1.088 c 0.418,0.4446 0.72,1.0758 0.72,2.1679 h 6 c 0,-2.3639 -0.721,-4.5487 -2.351,-6.2801 z m 0.72,2.1679 c 0,0.4386 -0.043,0.8815 -0.133,1.3317 l 5.883,1.1766 c 0.166,-0.8298 0.25,-1.6669 0.25,-2.5083 z m -0.125,1.2898 -4.992,23.232 5.867,1.2604 4.992,-23.232 z M 373.232,34.56 h 11.519 v -6 h -11.519 z m 11.519,0 c 3.941,0 7.443,-1.0526 10.26,-3.3722 l -3.815,-4.6316 c -1.535,1.2644 -3.601,2.0038 -6.445,2.0038 z m 10.26,-3.3722 c 2.935,-2.4177 4.356,-5.7349 4.356,-9.6118 h -6 c 0,2.2671 -0.754,3.8139 -2.171,4.9802 z m 4.356,-9.6118 c 0,-2.9946 -0.842,-5.7329 -2.894,-7.7853 l -4.243,4.2426 c 0.636,0.6356 1.137,1.6733 1.137,3.5427 z m -2.843,-7.733 c -2.06,-2.1625 -4.987,-2.947 -8.124,-2.947 v 6 c 2.238,0 3.279,0.5595 3.779,1.085 z M 388.4,10.896 h -11.425 v 6 H 388.4 Z m -14.359,2.3779 -3.744,17.6641 5.869,1.244 3.744,-17.6639 z m 74.676,41.3261 2.999,-0.04 -0.039,-2.96 h -2.96 z m -22.176,0 v -3 h -1.982 l -0.778,1.8227 z M 420.397,69 v 3 h 1.981 l 0.778,-1.8227 z M 406.861,69 404.115,67.7918 402.263,72 h 4.598 z M 436.429,1.8 v -3 h -1.958 l -0.788,1.791778 z m 23.424,0 2.999,-0.07284 L 462.781,-1.2 h -2.928 z m 1.632,67.2 v 3 h 3.074 l -0.075,-3.0728 z m -12.576,0 -3,0.04 0.039,2.96 h 2.961 z m -17.28,-26.496 -2.759,-1.179 -1.786,4.179 h 4.545 z m 16.896,0 v 3 h 3.042 l -0.043,-3.0419 z m -0.48,-34.368 2.999,-0.0419 -0.041,-2.9581 h -2.958 z m -1.728,0 v -3 h -1.981 l -0.778,1.82103 z m 2.4,43.464 h -22.176 v 6 h 22.176 z m -24.936,1.8227 -6.144,14.4 5.519,2.3546 6.144,-14.4 z M 420.397,66 h -13.536 v 6 h 13.536 z M 409.607,70.2082 439.175,3.00821 433.683,0.591778 404.115,67.7918 Z M 436.429,4.8 h 23.424 v -6 h -23.424 z m 20.425,-2.92717 1.632,67.19997 5.998,-0.1456 -1.632,-67.20004 z M 461.485,66 h -12.576 v 6 h 12.576 z m -9.577,2.96 -0.192,-14.4 -5.999,0.08 0.192,14.4 z M 431.629,45.504 h 16.896 v -6 h -16.896 z m 19.895,-3.0419 -0.48,-34.368 -5.999,0.08379 0.48,34.36801 z M 448.045,5.136 h -1.728 v 6 h 1.728 z M 443.558,6.95703 428.87,41.325 434.387,43.683 449.075,9.31497 Z M 488.202,43.656 v -3 h -2.43 l -0.505,2.3775 z M 482.826,69 v 3 h 2.43 l 0.505,-2.3775 z M 470.25,69 467.315,68.3794 466.549,72 h 3.701 z M 484.458,1.8 v -3 h -2.432 l -0.503,2.37943 z m 31.584,1.344 -1.114,2.78542 0.013,0.00536 0.014,0.00523 z m 9.504,9.408 -2.802,1.0714 0.013,0.0356 0.015,0.0352 z m -5.664,24.48 2.058,2.1828 z m -8.064,4.896 1.034,2.816 z m -21.024,-10.368 -2.935,-0.622 -0.768,3.622 h 3.703 z m 19.872,-2.88 1.985,2.2495 z m 0.96,-12.864 -1.969,2.2638 0.053,0.0454 0.054,0.0429 z m -17.088,-1.92 v -3 h -2.431 l -0.504,2.3779 z m -9.271,29.1375 -5.376,25.344 5.87,1.245 5.376,-25.344 z M 482.826,66 H 470.25 v 6 h 12.576 z m -9.641,3.6206 14.208,-67.20004 -5.87,-1.24113 -14.208,67.19997 z M 484.458,4.8 h 24 v -6 h -24 z m 24,0 c 2.497,0 4.638,0.39678 6.47,1.12942 l 2.228,-5.570854 C 514.508,-0.70079 511.593,-1.2 508.458,-1.2 Z m 6.497,1.14001 c 1.952,0.7593 3.542,1.78974 4.822,3.06931 l 4.242,-4.24264 c -1.92,-1.92044 -4.234,-3.386 -6.89,-4.4187 z m 4.822,3.06931 c 1.293,1.29288 2.281,2.82008 2.967,4.61408 l 5.604,-2.1428 c -0.978,-2.558 -2.422,-4.80678 -4.329,-6.71392 z m 2.995,4.68488 c 0.734,1.783 1.118,3.759 1.118,5.9618 h 6 c 0,-2.9172 -0.512,-5.6772 -1.57,-8.2462 z m 1.118,5.9618 c 0,3.2401 -0.548,6.1087 -1.597,8.6467 l 5.546,2.2906 c 1.383,-3.35 2.051,-7.0094 2.051,-10.9373 z m -1.597,8.6467 c -1.059,2.5654 -2.549,4.736 -4.469,6.5465 l 4.116,4.3656 c 2.56,-2.4135 4.526,-5.2989 5.899,-8.6215 z m -4.469,6.5465 c -1.921,1.811 -4.252,3.2385 -7.04,4.2628 l 2.068,5.632 c 3.484,-1.2797 6.529,-3.1162 9.088,-5.5292 z m -7.04,4.2628 c -2.76,1.0136 -5.891,1.544 -9.43,1.544 v 6 c 4.141,0 7.986,-0.6216 11.498,-1.912 z m -9.43,1.544 h -13.152 v 6 h 13.152 z m -10.56,-6.096 h 11.712 v -6 h -11.712 z m 11.712,0 c 3.897,0 7.352,-1.1659 10.145,-3.6305 l -3.97,-4.499 c -1.559,1.3754 -3.544,2.1295 -6.175,2.1295 z m 10.145,-3.6305 c 2.863,-2.5262 4.279,-5.8619 4.279,-9.7375 h -6 c 0,2.2684 -0.76,3.9247 -2.249,5.2385 z m 4.279,-9.7375 c 0,-3.0722 -1.036,-5.8231 -3.442,-7.7281 l -3.724,4.7042 c 0.666,0.527 1.166,1.3601 1.166,3.0239 z m -3.335,-7.6398 c -2.143,-1.8634 -4.854,-2.6562 -7.825,-2.6562 v 6 c 1.893,0 3.086,0.4872 3.887,1.1838 z M 505.77,10.896 h -11.232 v 6 h 11.232 z m -14.167,2.3779 -3.744,17.6641 5.87,1.244 3.744,-17.6639 z M 543.239,1.8 v -3 h -2.432 l -0.503,2.37943 z m 12.672,0 2.934,0.62578 0.774,-3.62578 h -3.708 z m -5.856,27.456 -2.934,-0.6258 -0.773,3.6258 h 3.707 z m 19.2,0 v 3 h 2.428 l 0.506,-2.3742 z M 575.111,1.8 v -3 h -2.427 l -0.507,2.37421 z m 12.672,0 2.935,0.62458 0.771,-3.62458 h -3.706 z M 573.479,69 v 3 h 2.429 l 0.506,-2.3754 z M 560.807,69 557.872,68.3784 557.105,72 h 3.702 z m 5.856,-27.648 2.935,0.6216 0.767,-3.6216 h -3.702 z m -19.2,0 v -3 h -2.431 l -0.504,2.3784 z M 541.607,69 v 3 h 2.431 l 0.504,-2.3784 z M 529.031,69 526.096,68.3794 525.331,72 h 3.7 z M 543.239,4.8 h 12.672 v -6 h -12.672 z m 9.738,-3.62579 -5.856,27.45599 5.868,1.2516 5.856,-27.45602 z M 550.055,32.256 h 19.2 v -6 h -19.2 z m 22.134,-2.3742 5.856,-27.45602 -5.868,-1.25157 -5.856,27.45599 z M 575.111,4.8 h 12.672 v -6 h -12.672 z m 9.738,-3.62458 -14.304,67.19998 5.869,1.2492 14.304,-67.20002 z M 573.479,66 h -12.672 v 6 h 12.672 z m -9.737,3.6216 5.856,-27.648 -5.87,-1.2432 -5.856,27.648 z m 2.921,-31.2696 h -19.2 v 6 h 19.2 z m -22.135,2.3784 -5.856,27.648 5.87,1.2432 5.856,-27.648 z M 541.607,66 h -12.576 v 6 h 12.576 z m -9.641,3.6206 14.208,-67.20004 -5.87,-1.24113 -14.208,67.19997 z m 57.575,-1.7726 -2.935,-0.6228 -0.065,0.308 V 67.848 Z M 603.557,1.8 v -3 h -2.431 l -0.504,2.37723 z m 39.839,0 h 3 v -3 h -3 z m 0,12.096 v 3 h 3 v -3 z m -29.76,0 v -3 h -2.429 l -0.505,2.3764 z m -3.264,15.36 -2.934,-0.6236 -0.77,3.6236 h 3.704 z m 26.016,0 h 3 v -3 h -3 z m 0,12.096 v 3 h 3 v -3 z m -28.607,0 v -3 h -2.436 l -0.501,2.3838 z m -3.265,15.552 -2.936,-0.6162 -0.758,3.6162 h 3.694 z m 28.32,0 h 3 v -3 h -3 z m 0,12.096 v 3 h 3 v -3 z m -43.295,0 h -3 v 3 h 3 z M 592.475,68.4708 606.491,2.42276 600.622,1.17723 586.606,67.2252 Z M 603.557,4.8 h 39.839 v -6 h -39.839 z m 36.839,-3 v 12.096 h 6 V 1.8 Z m 3,9.096 h -29.76 v 6 h 29.76 z m -32.694,2.3764 -3.264,15.36 5.869,1.2472 3.264,-15.36 z m -0.33,18.9836 h 26.016 v -6 h -26.016 z m 23.016,-3 v 12.096 h 6 V 29.256 Z m 3,9.096 h -28.607 v 6 h 28.607 z m -31.544,2.3838 -3.264,15.552 5.873,1.2324 3.264,-15.552 z m -0.328,19.1682 h 28.32 v -6 h -28.32 z m 25.32,-3 V 69 h 6 V 56.904 Z m 3,9.096 h -43.295 v 6 h 43.295 z m -40.295,3 v -1.152 h -6 V 69 Z m 114.562,-1.152 -2.935,-0.6228 -0.065,0.308 V 67.848 Z M 721.119,1.8 v -3 h -2.43 l -0.505,2.37723 z m 39.84,0 h 3 v -3 h -3 z m 0,12.096 v 3 h 3 v -3 z m -29.76,0 v -3 h -2.429 l -0.505,2.3764 z m -3.264,15.36 -2.934,-0.6236 -0.77,3.6236 h 3.704 z m 26.016,0 h 3 v -3 h -3 z m 0,12.096 v 3 h 3 v -3 z m -28.608,0 v -3 h -2.436 l -0.5,2.3838 z m -3.264,15.552 -2.936,-0.6162 -0.759,3.6162 h 3.695 z m 28.32,0 h 3 v -3 h -3 z m 0,12.096 v 3 h 3 v -3 z m -43.296,0 h -3 v 3 h 3 z m 2.935,-0.5292 14.016,-66.04804 -5.87,-1.24553 -14.016,66.04797 z M 721.119,4.8 h 39.84 v -6 h -39.84 z m 36.84,-3 v 12.096 h 6 V 1.8 Z m 3,9.096 h -29.76 v 6 h 29.76 z m -32.694,2.3764 -3.264,15.36 5.869,1.2472 3.263,-15.36 z m -0.33,18.9836 h 26.016 v -6 h -26.016 z m 23.016,-3 v 12.096 h 6 V 29.256 Z m 3,9.096 h -28.608 v 6 h 28.608 z m -31.544,2.3838 -3.264,15.552 5.872,1.2324 3.264,-15.552 z m -0.328,19.1682 h 28.32 v -6 h -28.32 z m 25.32,-3 V 69 h 6 V 56.904 Z m 3,9.096 h -43.296 v 6 h 43.296 z m -40.296,3 v -1.152 h -6 V 69 Z M 769.916,1.8 v -3 h -3.149 l 0.153,3.14554 z m 12.864,0 2.998,-0.10877 L 785.673,-1.2 h -2.893 z m 2.208,60.864 -2.998,0.1088 0.105,2.8912 h 2.893 z m 1.728,0 v 3 h 1.986 l 0.776,-1.8282 z M 812.54,1.8 v -3 h -1.986 l -0.775,1.828235 z m 13.248,0 h 3 v -3 h -3 z m 0,1.152 2.747,1.20581 0.253,-0.57637 V 2.952 Z M 796.796,69 v 3 h 1.96 l 0.787,-1.7942 z m -23.616,0 -2.996,0.1455 0.138,2.8545 h 2.858 z M 769.916,4.8 h 12.864 v -6 h -12.864 z m 9.866,-2.89124 2.208,60.86404 5.996,-0.2176 -2.208,-60.86397 z m 5.206,63.75524 h 1.728 v -6 h -1.728 z m 4.49,-1.8282 L 815.302,2.97176 809.779,0.628235 783.955,61.4922 Z M 812.54,4.8 h 13.248 v -6 H 812.54 Z m 10.248,-3 v 1.152 h 6 V 1.8 Z m 0.253,-0.05381 -28.992,66.04801 5.494,2.4116 28.992,-66.04799 z M 796.796,66 H 773.18 v 6 h 23.616 z m -20.619,2.8545 -3.264,-67.20005 -5.993,0.29109 3.264,67.19996 z m 48.489,-1.0065 -2.935,-0.6228 -0.065,0.308 V 67.848 Z M 838.682,1.8 v -3 h -2.431 l -0.504,2.37723 z m 39.839,0 h 3 v -3 h -3 z m 0,12.096 v 3 h 3 v -3 z m -29.76,0 v -3 h -2.429 l -0.505,2.3764 z m -3.264,15.36 -2.934,-0.6236 -0.77,3.6236 h 3.704 z m 26.016,0 h 3 v -3 h -3 z m 0,12.096 v 3 h 3 v -3 z m -28.607,0 v -3 h -2.436 l -0.501,2.3838 z m -3.265,15.552 -2.936,-0.6162 -0.758,3.6162 h 3.694 z m 28.32,0 h 3 v -3 h -3 z m 0,12.096 v 3 h 3 v -3 z m -43.295,0 h -3 v 3 h 3 z M 827.6,68.4708 841.616,2.42276 835.747,1.17723 821.731,67.2252 Z M 838.682,4.8 h 39.839 v -6 h -39.839 z m 36.839,-3 v 12.096 h 6 V 1.8 Z m 3,9.096 h -29.76 v 6 h 29.76 z m -32.694,2.3764 -3.264,15.36 5.869,1.2472 3.264,-15.36 z m -0.33,18.9836 h 26.016 v -6 h -26.016 z m 23.016,-3 v 12.096 h 6 V 29.256 Z m 3,9.096 h -28.607 v 6 h 28.607 z m -31.544,2.3838 -3.264,15.552 5.873,1.2324 3.264,-15.552 z m -0.328,19.1682 h 28.32 v -6 h -28.32 z m 25.32,-3 V 69 h 6 V 56.904 Z m 3,9.096 h -43.295 v 6 h 43.295 z m -40.295,3 v -1.152 h -6 V 69 Z m 86.693,-6.336 -2.992,-0.2218 -0.239,3.2218 h 3.231 z m 1.728,0 v 3 h 2.428 l 0.506,-2.3752 z M 929.047,1.8 v -3 h -2.429 l -0.505,2.3752 z m 12.096,0 2.934,0.62458 0.772,-3.62458 h -3.706 z M 926.839,69 v 3 h 2.428 l 0.506,-2.3754 z M 903.223,69 900.231,68.7782 899.992,72 h 3.231 z m 4.512,-60.864 2.992,0.22179 0.238,-3.22179 h -3.23 z m -1.728,0 v -3 h -2.429 l -0.505,2.3752 z M 893.047,69 v 3 h 2.428 l 0.506,-2.3752 z m -12,0 -2.935,-0.6206 L 877.346,72 h 3.701 z M 895.255,1.8 v -3 h -2.432 l -0.503,2.37943 z m 23.616,0 2.992,0.22179 0.238,-3.22179 h -3.23 z m -4.512,63.864 h 1.728 v -6 h -1.728 z m 4.662,-2.3752 12.96,-60.86401 -5.868,-1.24959 -12.96,60.864 z M 929.047,4.8 h 12.096 v -6 h -12.096 z m 9.161,-3.62458 -14.304,67.19998 5.869,1.2492 14.304,-67.20002 z M 926.839,66 h -23.616 v 6 h 23.616 z m -20.624,3.2218 4.512,-60.86401 -5.984,-0.44358 -4.512,60.86399 z m 1.52,-64.0858 h -1.728 v 6 h 1.728 z m -4.662,2.3752 -12.96,60.864 5.868,1.2496 12.96,-60.864 z M 893.047,66 h -12 v 6 h 12 z M 883.982,69.6206 898.19,2.42056 892.32,1.17943 878.112,68.3794 Z M 895.255,4.8 h 23.616 v -6 h -23.616 z m 20.624,-3.22179 -4.512,60.86399 5.984,0.4436 4.512,-60.86401 z M 950.1,1.8 v -3 h -3 v 3 z m 48.384,0 h 2.996 v -3 h -2.996 z m 0,12.096 v 3 h 2.996 v -3 z m -17.856,0 v -3 h -2.429 l -0.505,2.3763 z M 968.916,69 v 3 h 2.429 l 0.505,-2.3763 z M 956.244,69 953.31,68.3763 952.539,72 h 3.705 z m 11.712,-55.104 2.934,0.6237 0.771,-3.6237 h -3.705 z m -17.856,0 h -3 v 3 h 3 z m 0,-9.096 h 48.384 v -6 H 950.1 Z m 45.384,-3 v 12.096 h 5.996 V 1.8 Z m 3,9.096 h -17.856 v 6 h 17.856 z m -20.79,2.3763 -11.712,55.104 5.868,1.2474 11.712,-55.104 z M 968.916,66 h -12.672 v 6 h 12.672 z m -9.738,3.6237 11.712,-55.104 -5.868,-1.2474 -11.712,55.104 z M 967.956,10.896 H 950.1 v 6 h 17.856 z m -14.856,3 V 1.8 h -6 v 12.096 z"
     fill="white"
     mask="url(#path-1-outside-1_66719_3658)"
     id="path2"
     style="fill:#ffffff"
     transform="matrix(0.98373698,0,0,0.82048906,9.0216351,6.8087769)" />
</svg>
