<?xml version="1.0" encoding="UTF-8" standalone="no"?>
<svg
   width="108"
   height="18"
   viewBox="0 0 108 18"
   fill="none"
   version="1.1"
   id="svg2"
   sodipodi:docname="prev-img.svg"
   inkscape:version="1.4 (e7c3feb100, 2024-10-09)"
   xmlns:inkscape="http://www.inkscape.org/namespaces/inkscape"
   xmlns:sodipodi="http://sodipodi.sourceforge.net/DTD/sodipodi-0.dtd"
   xmlns="http://www.w3.org/2000/svg"
   xmlns:svg="http://www.w3.org/2000/svg">
  <defs
     id="defs2" />
  <sodipodi:namedview
     id="namedview2"
     pagecolor="#ffffff"
     bordercolor="#000000"
     borderopacity="0.25"
     inkscape:showpageshadow="2"
     inkscape:pageopacity="0.0"
     inkscape:pagecheckerboard="0"
     inkscape:deskcolor="#d1d1d1"
     inkscape:zoom="10.185185"
     inkscape:cx="56.65091"
     inkscape:cy="9.0327274"
     inkscape:window-width="1920"
     inkscape:window-height="975"
     inkscape:window-x="0"
     inkscape:window-y="0"
     inkscape:window-maximized="1"
     inkscape:current-layer="svg2" />
  <path
     d="m 0.27904715,8.29289 c -0.37206297,0.39053 -0.37206297,1.02369 0,1.41422 L 6.3421625,16.0711 c 0.3720686,0.3905 0.9752974,0.3905 1.347366,0 0.3720591,-0.3906 0.3720591,-1.0237 0,-1.4142 L 2.3000837,9 7.6895285,3.34315 c 0.3720591,-0.39053 0.3720591,-1.02369 0,-1.41422 -0.3720686,-0.39052 -0.9752974,-0.39052 -1.347366,0 z M 24.770909,10 c 0.526191,0 0.952727,-0.44772 0.952727,-1 0,-0.55228 -0.426536,-1 -0.952727,-1 z M 0.95272727,10 H 24.770909 V 8 H 0.95272727 Z"
     fill="black"
     id="path1"
     style="fill:#ffffff;stroke-width:0.976077" />
  <path
     d="m 31.977584,11.382533 v 4.248056 h -1.08122 V 5.3054545 h 3.217917 c 0.46338,0 0.866692,0.078668 1.209937,0.236003 0.343244,0.147502 0.626421,0.3490879 0.84953,0.6047579 0.23169,0.25567 0.403312,0.5555906 0.514866,0.8997617 0.120136,0.3343377 0.180204,0.6883422 0.180204,1.0620138 v 0.4425056 c 0,0.3736716 -0.06007,0.732593 -0.180204,1.0767636 -0.111554,0.3441717 -0.283176,0.6490089 -0.514866,0.9145129 -0.23169,0.25567 -0.519158,0.462172 -0.862402,0.619508 -0.343245,0.147502 -0.742266,0.221252 -1.197065,0.221252 z m 0,-1.150514 h 2.00798 c 1.201356,0 1.802034,-0.5900085 1.802034,-1.7700236 V 8.196492 c 0,-0.5211735 -0.15017,-0.9390956 -0.450509,-1.2537663 C 35.045331,6.6182216 34.594823,6.4559694 33.985564,6.4559694 h -2.00798 z M 38.44313,8.3144935 h 2.3169 v 0.9735127 h 0.15446 c 0.163041,-0.403172 0.394731,-0.6981758 0.69507,-0.8850116 0.300339,-0.1966692 0.643583,-0.2950037 1.029733,-0.2950037 0.643584,0 1.162741,0.2409197 1.557472,0.7227593 0.394731,0.4818396 0.604969,1.1849328 0.630712,2.1092778 L 43.772,11.11703 c 0,-0.678509 -0.141588,-1.1652645 -0.424765,-1.460269 -0.283177,-0.3048374 -0.630712,-0.457256 -1.042605,-0.457256 -0.266014,0 -0.497704,0.059001 -0.69507,0.1770023 -0.188784,0.1180015 -0.347535,0.2802537 -0.476252,0.4867565 -0.128716,0.2065032 -0.223109,0.4474222 -0.283176,0.7227592 -0.06007,0.275338 -0.0901,0.570341 -0.0901,0.885012 v 3.09754 h 1.62183 v 1.062014 h -4.09319 v -1.062014 h 1.46737 V 9.3765073 h -1.31291 z m 8.975414,4.0120525 c 0.02574,0.727676 0.223108,1.312767 0.592096,1.755273 0.368988,0.442506 0.883855,0.663759 1.5446,0.663759 0.300339,0 0.562063,-0.03934 0.785172,-0.118002 0.223109,-0.07866 0.411893,-0.186836 0.566353,-0.324504 0.163042,-0.137669 0.291758,-0.295004 0.38615,-0.472006 0.102974,-0.186837 0.184494,-0.383505 0.244562,-0.590009 l 0.952503,0.295004 c -0.180203,0.678509 -0.514866,1.2341 -1.00399,1.666773 -0.480542,0.422838 -1.132706,0.634257 -1.956493,0.634257 -0.454799,0 -0.875273,-0.0885 -1.261423,-0.265503 -0.377569,-0.186835 -0.703652,-0.447422 -0.978247,-0.78176 -0.274596,-0.334338 -0.489123,-0.732593 -0.643584,-1.194766 -0.15446,-0.462173 -0.23169,-0.973513 -0.23169,-1.53402 v -0.354004 c 0,-0.51134 0.07723,-0.988263 0.23169,-1.430769 C 46.809285,9.8337639 47.032394,9.455175 47.31557,9.1405042 47.598747,8.816 47.92912,8.5652468 48.306689,8.3882445 c 0.38615,-0.1868358 0.802334,-0.2802536 1.248551,-0.2802536 0.523448,0 0.973956,0.1130848 1.351525,0.3392544 0.38615,0.2163361 0.699361,0.4867562 0.939632,0.8112605 0.248852,0.3245039 0.429056,0.6785093 0.54061,1.0620142 0.120136,0.383505 0.180203,0.737509 0.180203,1.062013 v 0.944013 z M 49.55524,9.199505 c -0.283176,0 -0.549191,0.054084 -0.798043,0.1622521 -0.240271,0.098335 -0.454799,0.2409199 -0.643583,0.4277559 -0.180204,0.1868356 -0.330373,0.408088 -0.450509,0.663759 -0.111554,0.245836 -0.184494,0.516257 -0.218818,0.81126 H 51.56322 C 51.54606,10.949861 51.47741,10.664691 51.357274,10.409022 51.245719,10.153351 51.09555,9.9370151 50.906765,9.7600122 50.726562,9.5830097 50.516325,9.4453415 50.276054,9.3470069 50.044364,9.2486723 49.804093,9.199505 49.55524,9.199505 Z m 1.531729,-3.7170482 -1.08122,1.7405225 h -0.92676 l 0.84953,-1.7405225 z m 9.451772,7.5520982 c -0.06865,0.403172 -0.188784,0.776843 -0.360406,1.121014 -0.163041,0.344172 -0.373279,0.644093 -0.630712,0.899762 -0.257433,0.245837 -0.557772,0.43759 -0.901017,0.575258 -0.343244,0.137669 -0.725104,0.206502 -1.145578,0.206502 -0.446218,0 -0.870983,-0.08358 -1.274295,-0.250753 -0.394731,-0.167168 -0.742266,-0.408088 -1.042605,-0.722759 -0.300339,-0.324505 -0.54061,-0.717843 -0.720814,-1.180015 -0.171622,-0.462173 -0.257433,-0.99318 -0.257433,-1.593021 v -0.177002 c 0,-0.590008 0.08581,-1.121015 0.257433,-1.593021 0.180204,-0.4720057 0.420475,-0.8702618 0.720814,-1.194766 0.300339,-0.3245042 0.647874,-0.5752575 1.042605,-0.7522597 0.403312,-0.1770023 0.828077,-0.2655034 1.274295,-0.2655034 0.403312,0 0.77659,0.068834 1.119835,0.2065026 0.343244,0.1376685 0.643583,0.3343377 0.901017,0.5900077 0.266014,0.2458365 0.480542,0.5408403 0.643583,0.8850118 0.171622,0.344171 0.287467,0.717843 0.347535,1.121015 l -1.00399,0.265503 c -0.02574,-0.255669 -0.0901,-0.501506 -0.193075,-0.73751 C 59.221543,10.192685 59.088534,9.9812654 58.916911,9.804263 58.75387,9.6174274 58.552214,9.4699252 58.311943,9.3617571 58.071672,9.253589 57.792786,9.199505 57.475285,9.199505 c -0.30892,0 -0.600678,0.068834 -0.875274,0.2065027 -0.266014,0.1278349 -0.501995,0.3146709 -0.707942,0.5605073 -0.205946,0.236003 -0.368987,0.521174 -0.489123,0.855511 -0.111554,0.334338 -0.167332,0.698176 -0.167332,1.091515 v 0.177002 c 0,0.413006 0.05578,0.786677 0.167332,1.121015 0.120136,0.324503 0.283177,0.59984 0.489123,0.82601 0.205947,0.226169 0.446218,0.403172 0.720814,0.531007 0.274595,0.118002 0.570644,0.177003 0.888145,0.177003 0.317501,0 0.592097,-0.05408 0.823787,-0.162252 0.240271,-0.118002 0.441927,-0.265505 0.604968,-0.442506 0.171622,-0.186836 0.304629,-0.398255 0.399022,-0.634258 0.102973,-0.236004 0.171622,-0.481841 0.205946,-0.73751 z m 2.642554,-0.708009 c 0.02574,0.727676 0.223109,1.312767 0.592096,1.755273 0.368988,0.442506 0.883855,0.663759 1.5446,0.663759 0.300339,0 0.562063,-0.03934 0.785172,-0.118002 0.223109,-0.07866 0.411894,-0.186836 0.566354,-0.324504 0.163041,-0.137669 0.291757,-0.295004 0.38615,-0.472006 0.102973,-0.186837 0.184493,-0.383505 0.244561,-0.590009 l 0.952504,0.295004 c -0.180204,0.678509 -0.514867,1.2341 -1.00399,1.666773 -0.480543,0.422838 -1.132707,0.634257 -1.956494,0.634257 -0.454799,0 -0.875273,-0.0885 -1.261423,-0.265503 -0.377569,-0.186835 -0.703651,-0.447422 -0.978247,-0.78176 -0.274596,-0.334338 -0.489123,-0.732593 -0.643583,-1.194766 -0.15446,-0.462173 -0.23169,-0.973513 -0.23169,-1.53402 v -0.354004 c 0,-0.51134 0.07723,-0.988263 0.23169,-1.430769 0.163041,-0.4425051 0.38615,-0.821094 0.669326,-1.1357648 0.283177,-0.3245042 0.61355,-0.5752574 0.991119,-0.7522597 0.38615,-0.1868358 0.802334,-0.2802536 1.248551,-0.2802536 0.523448,0 0.973957,0.1130848 1.351526,0.3392544 0.38615,0.2163361 0.69936,0.4867562 0.939631,0.8112605 0.248853,0.3245039 0.429056,0.6785093 0.54061,1.0620142 0.120136,0.383505 0.180204,0.737509 0.180204,1.062013 v 0.944013 z m 2.136696,-3.127041 c -0.283176,0 -0.549191,0.054084 -0.798043,0.1622521 -0.240271,0.098335 -0.454799,0.2409199 -0.643583,0.4277559 -0.180204,0.1868356 -0.330373,0.408088 -0.450509,0.663759 -0.111554,0.245836 -0.184494,0.516257 -0.218818,0.81126 h 4.118934 C 67.308809,10.949861 67.24016,10.664691 67.120025,10.409022 67.00847,10.153351 66.858301,9.9370151 66.669517,9.7600122 66.489313,9.5830097 66.279076,9.4453415 66.038805,9.3470069 65.807115,9.2486723 65.566844,9.199505 65.317991,9.199505 Z M 66.84972,5.4824568 65.7685,7.2229793 h -0.92676 l 0.84953,-1.7405225 z m 8.422039,9.0271172 h -0.15446 c -0.102973,0.22617 -0.23598,0.42284 -0.399022,0.590008 -0.15446,0.167169 -0.326082,0.304837 -0.514866,0.413005 -0.180204,0.108168 -0.373279,0.186836 -0.579225,0.236003 -0.205947,0.059 -0.403313,0.0885 -0.592097,0.0885 -0.429056,0 -0.828077,-0.08358 -1.197065,-0.250753 -0.368988,-0.167169 -0.69507,-0.408089 -0.978247,-0.722759 -0.274595,-0.314671 -0.493414,-0.703093 -0.656455,-1.165266 -0.15446,-0.472005 -0.23169,-1.007929 -0.23169,-1.60777 v -0.236003 c 0,-0.590008 0.08152,-1.116098 0.244562,-1.578271 0.163041,-0.4720062 0.381859,-0.8653448 0.656455,-1.1800155 0.274595,-0.3245042 0.596387,-0.5703407 0.965375,-0.7375096 0.368988,-0.1671688 0.759428,-0.2507532 1.171322,-0.2507532 0.437636,0 0.845239,0.1130848 1.222808,0.3392544 0.38615,0.2163361 0.682198,0.5555905 0.888145,1.0177631 h 0.15446 V 5.3054545 h 1.00399 V 15.630589 h -1.00399 z m -2.136697,0.236004 c 0.300339,0 0.579225,-0.06392 0.836659,-0.191753 0.257433,-0.127836 0.480542,-0.309754 0.669326,-0.545757 0.197366,-0.236003 0.351826,-0.516257 0.46338,-0.840761 0.111555,-0.334337 0.167332,-0.703093 0.167332,-1.106265 v -0.177001 c 0,-0.39334 -0.05578,-0.75226 -0.167332,-1.076764 C 74.992873,10.472938 74.838413,10.187769 74.641047,9.9517655 74.452263,9.7157618 74.224864,9.5338426 73.958849,9.4060077 73.701416,9.2683392 73.42682,9.199505 73.135062,9.199505 c -0.300339,0 -0.583515,0.063918 -0.84953,0.1917524 -0.257433,0.1278347 -0.484832,0.3097539 -0.682198,0.5457577 -0.188785,0.2360029 -0.338954,0.5162569 -0.450508,0.8407609 -0.102974,0.324504 -0.15446,0.683425 -0.15446,1.076764 v 0.236003 c 0,0.413006 0.05149,0.78176 0.15446,1.106264 0.111554,0.324505 0.261723,0.604759 0.450508,0.840761 0.197366,0.226169 0.424765,0.403172 0.682198,0.531007 0.257434,0.118002 0.54061,0.177003 0.84953,0.177003 z m 5.808984,-2.419032 c 0.02574,0.727676 0.223109,1.312767 0.592097,1.755273 0.368987,0.442506 0.883854,0.663759 1.5446,0.663759 0.300339,0 0.562062,-0.03934 0.785171,-0.118002 0.223109,-0.07866 0.411894,-0.186836 0.566354,-0.324504 0.163041,-0.137669 0.291758,-0.295004 0.38615,-0.472006 0.102973,-0.186837 0.184494,-0.383505 0.244561,-0.590009 l 0.952504,0.295004 c -0.180204,0.678509 -0.514867,1.2341 -1.00399,1.666773 -0.480542,0.422838 -1.132707,0.634257 -1.956494,0.634257 -0.454799,0 -0.875273,-0.0885 -1.261423,-0.265503 -0.377569,-0.186835 -0.703651,-0.447422 -0.978247,-0.78176 -0.274595,-0.334338 -0.489123,-0.732593 -0.643583,-1.194766 -0.15446,-0.462173 -0.23169,-0.973513 -0.23169,-1.53402 v -0.354004 c 0,-0.51134 0.07723,-0.988263 0.23169,-1.430769 0.163041,-0.4425051 0.38615,-0.821094 0.669327,-1.1357648 0.283176,-0.3245042 0.613549,-0.5752574 0.991118,-0.7522597 0.38615,-0.1868358 0.802334,-0.2802536 1.248552,-0.2802536 0.523447,0 0.973956,0.1130848 1.351525,0.3392544 0.38615,0.2163361 0.69936,0.4867562 0.939631,0.8112605 0.248853,0.3245039 0.429056,0.6785093 0.54061,1.0620142 0.120136,0.383505 0.180204,0.737509 0.180204,1.062013 v 0.944013 z m 2.136697,-3.127041 c -0.283177,0 -0.549191,0.054084 -0.798044,0.1622521 -0.240271,0.098335 -0.454799,0.2409199 -0.643583,0.4277559 -0.180203,0.1868356 -0.330373,0.408088 -0.450508,0.663759 -0.111555,0.245836 -0.184494,0.516257 -0.218819,0.81126 h 4.118934 c -0.01716,-0.314671 -0.08581,-0.599841 -0.205947,-0.85551 C 82.771222,10.153351 82.621052,9.9370151 82.432268,9.7600122 82.252064,9.5830097 82.041827,9.4453415 81.801556,9.3470069 81.569866,9.2486723 81.329595,9.199505 81.080743,9.199505 Z m 6.015037,6.431084 H 86.09179 V 8.3144935 h 1.00399 v 1.2390163 h 0.15446 c 0.394731,-0.9636794 1.08122,-1.4455189 2.059467,-1.4455189 0.737975,0 1.325782,0.2655034 1.763418,0.7965103 0.437637,0.5211734 0.656455,1.3078508 0.656455,2.3600308 v 4.366057 h -1.00399 v -4.130054 c 0,-0.76701 -0.150169,-1.342267 -0.450508,-1.7257724 C 89.974743,9.3912574 89.56714,9.199505 89.052274,9.199505 c -0.609259,0 -1.089802,0.2409198 -1.441627,0.7227596 C 87.267402,10.394271 87.09578,11.02853 87.09578,11.82504 Z m 6.658621,-7.3160955 h 2.00798 v -3.009039 h 1.003993 v 3.009039 h 2.47136 v 1.0620138 h -2.47136 V 14.12607 c 0,0.295004 0.11584,0.442505 0.34753,0.442505 h 1.81491 v 1.062014 h -2.17531 c -0.29176,0 -0.53203,-0.108168 -0.72082,-0.324504 -0.180201,-0.216336 -0.270303,-0.491673 -0.270303,-0.826011 V 9.3765073 h -2.00798 z m 8.833929,4.0120525 c 0.0257,0.727676 0.22311,1.312767 0.5921,1.755273 0.36898,0.442506 0.88385,0.663759 1.5446,0.663759 0.30034,0 0.56206,-0.03934 0.78517,-0.118002 0.22311,-0.07866 0.41189,-0.186836 0.56635,-0.324504 0.16304,-0.137669 0.29176,-0.295004 0.38615,-0.472006 0.10297,-0.186837 0.1845,-0.383505 0.24456,-0.590009 l 0.95251,0.295004 c -0.18021,0.678509 -0.51487,1.2341 -1.00399,1.666773 -0.48055,0.422838 -1.13271,0.634257 -1.9565,0.634257 -0.4548,0 -0.87527,-0.0885 -1.26142,-0.265503 -0.37757,-0.186835 -0.70365,-0.447422 -0.97825,-0.78176 -0.27459,-0.334338 -0.48912,-0.732593 -0.64358,-1.194766 -0.15446,-0.462173 -0.23169,-0.973513 -0.23169,-1.53402 v -0.354004 c 0,-0.51134 0.0772,-0.988263 0.23169,-1.430769 0.16304,-0.4425051 0.38615,-0.821094 0.66933,-1.1357648 0.28317,-0.3245042 0.61355,-0.5752574 0.99111,-0.7522597 0.38615,-0.1868358 0.80234,-0.2802536 1.24856,-0.2802536 0.52344,0 0.97395,0.1130848 1.35152,0.3392544 0.38615,0.2163361 0.69936,0.4867562 0.93963,0.8112605 0.24886,0.3245039 0.42906,0.6785093 0.54061,1.0620142 0.12014,0.383505 0.18021,0.737509 0.18021,1.062013 v 0.944013 z m 2.1367,-3.127041 c -0.28318,0 -0.54919,0.054084 -0.79805,0.1622521 -0.24027,0.098335 -0.4548,0.2409199 -0.64358,0.4277559 -0.1802,0.1868356 -0.33037,0.408088 -0.45051,0.663759 -0.11155,0.245836 -0.18449,0.516257 -0.21882,0.81126 h 4.11894 c -0.0172,-0.314671 -0.0858,-0.599841 -0.20595,-0.85551 -0.11155,-0.255671 -0.26172,-0.4720069 -0.45051,-0.6490098 -0.1802,-0.1770025 -0.39044,-0.3146707 -0.63071,-0.4130053 -0.23169,-0.098335 -0.47196,-0.1475019 -0.72081,-0.1475019 z"
     fill="black"
     id="path2"
     style="fill:#ffffff;stroke-width:1.14824" />
</svg>
