<?xml version="1.0" encoding="UTF-8" standalone="no"?>
<!-- Created with Inkscape (http://www.inkscape.org/) -->

<svg
   width="297mm"
   height="210mm"
   viewBox="0 0 1122.5197 793.70081"
   version="1.1"
   id="svg1"
   sodipodi:docname="left-arrow.svg"
   inkscape:version="1.4 (e7c3feb100, 2024-10-09)"
   xmlns:inkscape="http://www.inkscape.org/namespaces/inkscape"
   xmlns:sodipodi="http://sodipodi.sourceforge.net/DTD/sodipodi-0.dtd"
   xmlns="http://www.w3.org/2000/svg"
   xmlns:svg="http://www.w3.org/2000/svg">
  <sodipodi:namedview
     id="namedview1"
     pagecolor="#ffffff"
     bordercolor="#000000"
     borderopacity="0.25"
     inkscape:showpageshadow="2"
     inkscape:pageopacity="0.0"
     inkscape:pagecheckerboard="0"
     inkscape:deskcolor="#d1d1d1"
     inkscape:document-units="mm"
     inkscape:zoom="0.96257937"
     inkscape:cx="560.9927"
     inkscape:cy="396.85039"
     inkscape:window-width="1920"
     inkscape:window-height="975"
     inkscape:window-x="0"
     inkscape:window-y="0"
     inkscape:window-maximized="1"
     inkscape:current-layer="layer1" />
  <defs
     id="defs1" />
  <g
     inkscape:label="Calque 1"
     inkscape:groupmode="layer"
     id="layer1">
    <path
       style="fill:#ffffff;stroke-width:2.18177"
       d="m 220.15481,549.54628 c 6.46793,-3.00515 12.08503,-12.90365 12.08503,-21.2963 0,-6.43368 -6.61323,-13.41181 -73.57769,-77.63751 -40.46772,-38.81264 -73.577724,-71.27013 -73.577724,-72.12773 0,-0.85762 233.699424,-1.55929 519.331984,-1.55929 h 519.33199 l 6.5725,-5.29553 c 11.1055,-8.94775 11.1806,-23.11011 0.1746,-32.92822 l -5.0163,-4.47488 H 605.2818 c -286.10857,0 -520.197474,-0.71516 -520.197474,-1.58924 0,-0.87408 32.680704,-32.89261 72.623544,-71.15229 67.89464,-65.03345 72.7042,-70.13916 73.86292,-78.41105 1.12215,-8.01095 0.49522,-9.56061 -6.62657,-16.37992 -8.92554,-8.54647 -19.0513,-9.98552 -28.43981,-4.04181 -9.0325,5.71833 -187.2425836,176.41529 -190.7171837,182.67668 -3.8734,6.98037 -3.9822,14.11685 -0.3025,19.85414 1.5063001,2.34842 45.9172997,45.3406 98.6912037,95.53818 90.02251,85.62767 96.4282,91.25939 103.64713,91.12382 4.23197,-0.0794 9.78122,-1.11405 12.33166,-2.29905 z"
       id="path1" />
  </g>
</svg>
